<?xml version="1.0" standalone="no"?>
<!DOCTYPE svg PUBLIC "-//W3C//DTD SVG 20010904//EN"
 "http://www.w3.org/TR/2001/REC-SVG-20010904/DTD/svg10.dtd">
<svg version="1.0" xmlns="http://www.w3.org/2000/svg"
 width="824.000000pt" height="824.000000pt" viewBox="0 0 824.000000 824.000000"
 preserveAspectRatio="xMidYMid meet">
<metadata>
Created by potrace 1.11, written by Peter Selinger 2001-2013
</metadata>
<g transform="translate(0.000000,824.000000) scale(0.100000,-0.100000)"
fill="#000000" stroke="none">
<path d="M110 7600 c-8 -5 -18 -6 -22 -4 -8 5 36 -79 52 -101 4 -5 17 -26 28
-45 10 -19 49 -86 86 -149 36 -62 66 -118 66 -122 0 -5 4 -9 9 -9 5 0 11 -8
14 -17 3 -10 19 -40 36 -68 16 -27 43 -72 58 -100 49 -85 58 -100 63 -105 3
-3 16 -27 30 -55 14 -27 28 -54 33 -60 28 -37 55 -85 49 -85 -4 0 -2 -4 3 -8
6 -4 22 -28 35 -54 14 -27 28 -48 32 -48 5 0 8 -5 8 -11 0 -6 27 -56 60 -111
33 -54 60 -100 60 -102 0 -2 41 -72 90 -155 50 -84 90 -154 90 -157 0 -2 17
-33 38 -67 54 -89 87 -146 142 -242 10 -16 50 -86 90 -155 40 -69 78 -135 84
-147 6 -13 14 -23 19 -23 4 0 7 -6 7 -12 0 -7 18 -41 40 -76 22 -34 40 -64 40
-66 0 -2 27 -50 60 -105 33 -56 60 -106 60 -111 0 -6 5 -10 10 -10 6 0 10 -5
10 -10 0 -6 11 -27 23 -48 13 -20 35 -57 49 -82 14 -25 48 -84 77 -132 28 -48
51 -91 51 -97 0 -6 5 -11 10 -11 6 0 10 -7 10 -15 0 -8 5 -15 12 -15 6 0 8 -3
5 -7 -4 -3 -1 -13 6 -22 17 -20 99 -160 170 -291 16 -30 35 -61 41 -69 11 -14
31 -47 42 -71 9 -18 130 -224 153 -260 8 -14 16 -27 16 -30 0 -4 112 -197 169
-290 11 -19 28 -47 36 -61 43 -75 142 -246 150 -259 15 -25 275 -472 302 -520
50 -89 66 -116 105 -180 21 -36 42 -72 46 -80 4 -8 18 -33 31 -55 19 -32 111
-190 256 -440 10 -16 73 -124 140 -240 67 -115 132 -226 142 -245 11 -19 51
-88 89 -152 38 -64 69 -121 69 -127 0 -6 3 -11 8 -11 4 0 12 -10 18 -23 10
-19 86 -152 225 -389 18 -32 36 -58 40 -58 7 0 51 74 83 137 6 13 14 23 19 23
4 0 7 5 7 11 0 6 31 63 69 127 81 138 109 187 128 224 8 15 19 30 24 33 5 4 7
11 4 16 -4 5 -1 9 4 9 6 0 17 15 26 33 8 17 26 52 41 77 15 25 35 59 45 77 10
17 29 49 42 70 13 21 27 45 30 53 4 8 17 31 28 50 12 19 55 94 97 165 42 72
111 190 154 263 43 73 78 138 78 143 0 5 5 9 12 9 6 0 8 3 5 7 -4 3 -1 13 7
22 7 9 25 36 38 61 43 77 279 482 319 548 22 35 39 65 39 67 0 2 20 38 45 79
25 42 45 81 45 86 0 6 4 10 9 10 5 0 12 8 15 18 3 9 12 26 19 37 11 19 82 140
135 230 12 22 25 48 29 58 3 9 9 17 14 17 5 0 9 7 9 15 0 8 4 15 8 15 4 0 13
12 19 28 15 36 55 103 71 120 6 7 12 18 12 23 0 7 37 74 90 159 5 8 21 38 36
65 15 28 35 61 45 74 11 13 19 30 19 37 0 8 5 14 10 14 6 0 10 4 10 10 0 5 30
60 66 122 37 62 85 145 107 183 22 39 47 81 56 95 23 37 58 98 87 155 15 28
30 52 35 53 5 2 9 8 9 13 0 5 13 30 29 56 16 27 40 66 53 89 30 54 186 323
201 349 7 11 14 22 17 25 3 3 18 30 34 60 16 30 32 57 35 60 3 3 15 23 26 45
11 22 22 42 25 45 7 7 34 53 71 120 16 30 38 69 49 85 10 17 31 53 45 80 15
28 33 57 41 66 8 8 14 18 14 21 0 4 27 52 60 108 33 56 60 104 60 107 0 3 14
26 31 51 17 25 35 55 40 66 5 12 18 35 29 51 11 17 23 37 27 45 4 8 35 63 70
122 35 59 66 115 70 125 4 10 11 23 15 28 19 22 135 225 129 225 -3 0 -1 4 4
8 6 4 67 104 135 222 68 118 128 217 132 218 4 2 8 9 8 16 0 7 18 41 40 75 22
34 40 64 40 67 0 4 26 50 58 103 31 53 64 110 72 126 8 17 21 36 28 44 7 7 11
15 9 18 -8 7 -97 8 -97 1 0 -4 -10 -4 -23 1 -13 5 -30 5 -39 0 -10 -6 -19 -6
-23 0 -3 7 -15 7 -30 1 -15 -6 -27 -6 -30 0 -3 6 -15 6 -30 0 -14 -5 -25 -6
-25 -2 0 4 -15 7 -32 5 -36 -2 -93 -3 -120 -3 -24 0 -45 0 -65 0 -26 0 -73 1
-110 3 -18 1 -33 -1 -33 -5 0 -3 -13 -3 -30 2 -18 5 -32 5 -35 -1 -4 -5 -13
-5 -23 0 -10 5 -24 6 -33 1 -8 -5 -21 -5 -29 0 -7 4 -24 4 -37 -1 -13 -5 -23
-5 -23 1 0 5 -12 5 -30 0 -17 -5 -30 -6 -30 -2 0 8 -53 8 -66 -1 -6 -3 -16 -2
-24 3 -8 5 -21 5 -31 -1 -11 -6 -20 -5 -24 1 -4 6 -15 6 -30 0 -15 -6 -25 -6
-25 0 0 5 -12 5 -30 0 -17 -5 -30 -6 -30 -2 0 4 -38 7 -85 7 -47 0 -85 -3 -85
-7 0 -4 -14 -3 -30 2 -18 5 -30 5 -30 0 0 -6 -9 -6 -23 -1 -13 5 -30 5 -39 0
-10 -6 -19 -6 -23 0 -4 7 -15 7 -30 1 -14 -5 -25 -6 -25 -2 0 8 -57 8 -66 -1
-3 -3 -18 -1 -33 4 -14 6 -26 10 -26 10 0 0 -12 -4 -27 -10 -16 -6 -28 -7 -28
-3 0 4 -27 7 -60 7 -33 0 -60 -3 -60 -7 0 -4 -10 -4 -23 1 -13 5 -30 5 -39 0
-10 -6 -19 -6 -23 0 -3 7 -15 7 -30 1 -15 -6 -27 -6 -30 0 -3 6 -15 6 -30 0
-14 -5 -25 -6 -25 -2 0 4 -27 7 -60 7 -33 0 -60 -3 -60 -7 0 -4 -10 -4 -23 1
-13 5 -30 5 -39 0 -11 -6 -19 -5 -23 1 -4 6 -11 8 -16 5 -14 -9 -89 -12 -89
-3 0 3 -14 3 -30 -2 -17 -5 -30 -5 -30 0 0 5 -12 5 -28 1 -15 -5 -37 -5 -49 0
-13 5 -25 4 -28 -1 -4 -6 -13 -7 -24 -1 -10 6 -23 6 -31 1 -8 -5 -21 -5 -30 0
-9 5 -23 4 -32 -1 -10 -6 -19 -6 -23 0 -3 7 -15 7 -30 1 -15 -6 -27 -6 -30 0
-3 6 -15 6 -30 0 -15 -6 -25 -6 -25 0 0 5 -12 5 -30 0 -17 -5 -30 -6 -30 -2 0
4 -25 7 -55 7 -30 0 -55 -3 -55 -7 0 -4 -11 -3 -25 2 -15 6 -26 6 -30 0 -4 -6
-13 -7 -24 -1 -10 6 -23 6 -31 1 -8 -5 -21 -5 -30 0 -9 5 -23 4 -32 -1 -10 -6
-19 -6 -23 0 -3 7 -15 7 -30 1 -15 -6 -27 -6 -30 0 -3 6 -15 6 -30 0 -15 -6
-25 -6 -25 0 0 5 -12 5 -30 0 -16 -5 -30 -6 -30 -2 0 4 -47 7 -105 7 -58 0
-105 -3 -105 -7 0 -5 -49 4 -63 12 -1 1 -14 -3 -29 -9 -16 -6 -28 -7 -28 -3 0
4 -27 7 -60 7 -33 0 -60 -3 -60 -7 0 -4 -10 -4 -23 1 -13 5 -30 5 -39 0 -10
-6 -19 -6 -23 0 -3 7 -15 7 -30 1 -15 -6 -27 -6 -30 0 -3 6 -15 6 -30 0 -14
-5 -25 -6 -25 -2 0 4 -27 7 -60 7 -33 0 -60 -3 -60 -7 0 -4 -10 -4 -23 1 -13
5 -30 5 -39 0 -10 -6 -19 -6 -23 0 -3 6 -15 7 -28 3 -12 -5 -33 -7 -47 -5 -14
2 -31 3 -37 3 -7 0 -20 0 -28 0 -8 0 -23 0 -32 0 -26 0 -73 1 -110 3 -18 1
-33 -1 -33 -5 0 -3 -13 -3 -30 2 -18 5 -32 5 -35 -1 -4 -5 -13 -5 -23 0 -10 5
-24 6 -33 1 -8 -5 -21 -5 -29 0 -7 4 -24 4 -37 -1 -13 -5 -23 -5 -23 1 0 5
-12 5 -30 0 -16 -5 -30 -6 -30 -2 0 8 -53 8 -66 -1 -6 -3 -16 -2 -24 3 -8 5
-21 5 -31 -1 -11 -6 -20 -5 -24 1 -4 6 -15 6 -30 0 -15 -6 -25 -6 -25 0 0 5
-12 5 -30 0 -17 -5 -30 -6 -30 -2 0 4 -38 7 -85 7 -47 0 -85 -3 -85 -7 0 -4
-13 -3 -30 2 -18 5 -30 5 -30 0 0 -6 -9 -6 -23 -1 -13 5 -30 5 -39 0 -10 -6
-19 -6 -23 0 -4 7 -15 7 -30 1 -14 -5 -25 -6 -25 -2 0 8 -57 8 -66 -1 -3 -3
-18 -1 -33 4 -14 6 -28 10 -31 9 -3 -2 -15 -6 -27 -11 -13 -5 -23 -5 -23 -1 0
4 -27 7 -60 7 -33 0 -60 -3 -60 -7 0 -4 -10 -4 -23 1 -13 5 -30 5 -39 0 -10
-6 -19 -6 -23 0 -3 7 -15 7 -30 1 -15 -6 -27 -6 -30 0 -3 6 -15 6 -30 0 -14
-5 -25 -6 -25 -2 0 4 -27 7 -60 7 -33 0 -60 -3 -60 -7 0 -4 -10 -4 -23 1 -13
5 -30 5 -39 0 -11 -6 -19 -5 -23 1 -4 6 -11 8 -16 5 -14 -9 -89 -12 -89 -3 0
3 -14 3 -30 -2 -17 -5 -30 -5 -30 0 0 5 -12 5 -28 1 -15 -5 -37 -5 -49 0 -13
5 -25 4 -28 -1 -4 -6 -13 -7 -24 -1 -10 6 -23 6 -31 1 -8 -5 -21 -5 -30 0 -9
5 -23 4 -32 -1 -10 -6 -19 -6 -23 0 -3 7 -15 7 -30 1 -15 -6 -27 -6 -30 0 -3
6 -15 6 -30 0 -15 -6 -25 -6 -25 0 0 5 -12 5 -30 0 -17 -5 -30 -6 -30 -2 0 4
-25 7 -55 7 -30 0 -55 -3 -55 -7 0 -4 -11 -3 -25 2 -15 6 -26 6 -30 0 -4 -6
-13 -7 -24 -1 -10 6 -23 6 -31 1 -8 -5 -21 -5 -30 0 -9 5 -23 4 -32 -1 -10 -6
-19 -6 -23 0 -3 7 -15 7 -30 1 -15 -6 -27 -6 -30 0 -3 6 -15 6 -30 0 -15 -6
-25 -6 -25 0 0 5 -12 5 -30 0 -17 -5 -30 -6 -30 -2 0 4 -47 7 -105 7 -58 0
-105 -3 -105 -7 0 -4 -14 -3 -30 2 -36 10 -38 10 -68 -1 -12 -5 -22 -5 -22 -1
0 4 -27 7 -60 7 -33 0 -60 -3 -60 -7 0 -4 -10 -4 -23 1 -13 5 -30 5 -39 0 -10
-6 -19 -6 -23 0 -3 6 -15 7 -28 2 -14 -5 -30 -5 -40 0 -11 7 -17 6 -17 0 0 -7
-8 -7 -25 -1 -15 6 -27 6 -30 0 -3 -6 -15 -6 -29 0 -13 5 -27 6 -31 2 -9 -9
-39 -9 -45 0 -3 4 -12 3 -20 -2z"/>
</g>
</svg>
